<?xml version="1.0" encoding="UTF-8"?>
<svg id="Layer_1" xmlns="http://www.w3.org/2000/svg" version="1.1" viewBox="0 0 673.71 141.17">
  <!-- Generator: Adobe Illustrator 30.5.0, SVG Export Plug-In . SVG Version: 2.1.4 Build 102)  -->
  <defs>
    <style>
      .st0 {
        fill: #101d47;
      }

      .st1 {
        fill: #061434;
      }

      .st2 {
        fill: #37363b;
      }

      .st3 {
        fill: #061331;
      }

      .st4 {
        fill: #162c5d;
      }

      .st5 {
        fill: #fefefe;
      }

      .st6 {
        fill: #071332;
      }

      .st7 {
        display: none;
      }

      .st8 {
        fill: #162c5e;
      }
    </style>
  </defs>
  <g class="st7">
    <g>
      <path class="st8" d="M108.25,129.53c10.8,6.09,24.29,5.07,34.43-1.39l.11-22.67,8.25.15v26.17c-6.63,5.49-14.42,8.25-22.74,9.13-17.77,1.89-35.07-7.22-40.95-24.32-2.46-7.16-2.69-15.06-.72-22.39,3.57-13.34,14.18-23.16,27.61-25.95,12.68-2.64,27.32-.23,36.46,9.25-1.5,2.3-3.33,3.81-5.28,5.73-1.8-2.1-3.72-3.42-6.02-4.68-11.7-6.39-27.87-4.93-37.1,4.68-5.84,6.09-8.72,14.03-8.27,22.48.52,9.76,5.39,18.81,14.22,23.79Z"/>
      <path class="st4" d="M213.34,132.67l-.06,7.14-13.17.07-31.61-.07v-71.49s8.71,0,8.71,0l-.05,62.41c0,1.15.28,1.97,1.57,1.97l34.61-.03Z"/>
    </g>
    <g>
      <g>
        <path class="st8" d="M357.04,103.14c3.84,1.39,7.19,3.28,9.69,6.5,6.19,7.95,4.67,21.64-4.79,26.67-5.04,2.6-10.58,3.62-16.44,3.61l-33.16-.07.02-71.57h30.82c3.72,0,7.04.72,10.62,1.54,8.33,2.85,12.89,7.74,13.06,16.8.12,6.27-3.1,11.83-8.76,14.49-.75.35-1.33.98-1.05,2.05Z"/>
        <g>
          <path class="st3" d="M360.27,113.67c2.57,5.58,1.69,12.93-3.52,16.58-3.37,1.83-6.93,2.73-10.85,2.74l-24.83.09v-26.47s24.08-.11,24.08-.11l7.2,1.02c3.29,1.08,6.43,2.92,7.92,6.14Z"/>
          <path class="st5" d="M358.81,119.63c.16,4.34-1.98,7.77-5.93,9.13-2.83.97-5.82,1.35-8.91,1.36h-20.02s0-20.66,0-20.66l19.27-.03c3.23.04,6.41.32,9.33,1.42,3.91,1.29,6.11,4.51,6.27,8.78Z"/>
        </g>
        <g>
          <path class="st1" d="M342.03,99.85l-19.53.04c-1.18,0-1.5-.89-1.5-1.95l.12-22.77,23.99.13c3.98.02,7.41,1.67,10.27,4.19,4.98,5.8,3.66,14.82-3.21,18.43-3.1,1.63-6.66,1.93-10.15,1.93Z"/>
          <path class="st5" d="M355.34,87.6c.04,7-6.15,9.31-13.31,9.32h-18.08s.02-18.9.02-18.9h18.45c3.04.13,5.96.54,8.62,1.92,2.88,1.58,4.28,4.53,4.3,7.66Z"/>
        </g>
      </g>
      <g>
        <g>
          <polygon class="st8" points="437.44 121.88 396.63 121.85 388.53 139.82 379.61 139.75 392.02 112.36 404.92 84.28 412.12 68.28 422.11 68.27 425.21 75 437.63 102.01 454.84 139.76 445.82 139.89 437.44 121.88"/>
          <g>
            <path class="st6" d="M401.5,115.11l32.76-.15-11.01-25.53-6.13-12.65-7.4,15.43c-3.12,7.04-6.86,15.86-9.99,22.9"/>
            <polygon class="st5" points="430.09 112.13 404.17 112.12 417.16 82.79 430.09 112.13"/>
          </g>
        </g>
        <polygon class="st8" points="511.91 132.67 511.97 139.93 467.35 139.88 467.32 68.34 475.93 68.26 476.03 132.65 511.91 132.67"/>
      </g>
    </g>
  </g>
  <g>
    <path class="st0" d="M86.57,68.44h15.33v45.85c-11.18,9.91-26.67,14.95-42.33,14.95C25.24,129.24,0,103.88,0,69.12S25.24,8.99,59.9,8.99c17.73,0,32.74,6.21,42.97,18.14l-9.9,10.41c-9.26-9.41-19.81-13.61-32.42-13.61-25.88,0-44.56,18.98-44.56,45.18s18.69,45.18,44.4,45.18c9.42,0,18.21-2.18,26.19-7.56v-38.29Z"/>
    <path class="st0" d="M132.41,10.33h15.97v102.96h60.53v14.61h-76.51V10.33Z"/>
    <path class="st0" d="M455.53,96.16c0,20.16-14.53,31.74-42.81,31.74h-53.35V10.33h50.15c25.72,0,40.09,11.42,40.09,30.4,0,12.76-6.23,21.67-15.01,26.2,12.62,3.7,20.92,13.61,20.92,29.22ZM375.35,23.94v37.62h32.74c16.29,0,25.55-6.38,25.55-18.81s-9.26-18.81-25.55-18.81h-32.74ZM439.4,94.81c0-13.61-9.58-19.65-27.31-19.65h-36.74v39.13h36.74c17.73,0,27.31-5.88,27.31-19.48Z"/>
    <path class="st0" d="M551.53,98.51h-59.42l-12.3,29.39h-16.45l50.63-117.57h15.81l50.79,117.57h-16.77l-12.3-29.39ZM545.93,85.07l-24.12-57.61-24.12,57.61h48.24Z"/>
    <path class="st0" d="M597.21,10.33h15.97v102.96h60.53v14.61h-76.51V10.33Z"/>
  </g>
  <g>
    <circle class="st2" cx="277.84" cy="65.53" r="5.81"/>
    <circle class="st2" cx="284.38" cy="75.39" r="4.75"/>
    <circle class="st2" cx="271.12" cy="54.69" r="4.7"/>
    <circle class="st2" cx="287.49" cy="86.76" r="4.56"/>
    <circle class="st2" cx="266.09" cy="44.19" r="4.53"/>
    <circle class="st2" cx="262.83" cy="33.91" r="3.84"/>
    <circle class="st2" cx="289.18" cy="96.92" r="3.84"/>
    <circle class="st2" cx="287.75" cy="105.66" r="3.34"/>
    <circle class="st2" cx="264.07" cy="24.8" r="3.33"/>
    <circle class="st2" cx="267.87" cy="17.66" r="2.8"/>
    <circle class="st2" cx="286.31" cy="112.87" r="2.68"/>
    <circle class="st2" cx="283.88" cy="118.14" r="2.47"/>
    <circle class="st2" cx="271.63" cy="12.2" r="2.41"/>
    <circle class="st2" cx="280.72" cy="122.91" r="1.75"/>
    <circle class="st2" cx="275.29" cy="8.18" r="1.76"/>
    <circle class="st2" cx="277.94" cy="126.61" r="1.41"/>
    <circle class="st2" cx="278.71" cy="5.17" r="1.26"/>
    <circle class="st2" cx="275.25" cy="129.41" r="1.05"/>
    <path class="st0" d="M328.59,33.11c-9.51-13.69-22.8-23.57-39.33-27.07-11.61,9.43-15.36,25.28-9.74,39.32l6.18,11.56c4.78,7.42,9.41,14.59,12.49,22.91,5.65,15.32,3.55,31.25-5.16,45.34,27.24-7.52,45.63-31.66,45.66-59.01.01-11.96-3.76-23.2-10.1-33.05ZM307.64,108.42c3.84-21.66-4.03-35.17-14.75-51.96-9.03-13.15-12.61-27.58-1.76-40.31,15.29,4.66,27.56,15.03,33.96,29.58,9.65,21.97,2.72,48.45-17.45,62.69Z"/>
    <path class="st0" d="M271.56,79.14c-2-3.89-4.18-7.17-6.36-10.84-9.35-15.71-18.68-31.61-10.02-49.23,2.36-4.82,5.66-8.26,9.29-12.68-18.49,3.74-33.04,15.31-42.39,31.09-4.9,9.59-7.73,20.04-7.19,30.94,1.47,29.5,23.24,53.57,52.56,58.1,12.26-13.55,12.31-31.42,4.13-47.37ZM265.49,116.9c-20.89-4.34-36.54-20.61-40.58-41.57-3.61-18.74,4.09-38.38,19.87-50.15-1.87,17.01,3.4,28.64,12.24,42.37,10.46,16.08,17.84,31.59,8.47,49.35Z"/>
  </g>
  <path class="st0" d="M262.18,54.08c-9.04-15.77-8.35-31.79,5.56-43.94,4.7-4.1,9.87-6.81,15.03-10.13-10.24.39-19.81,1.56-29.34,5.11-21.37,7.97-37.21,26.43-41.62,48.84-7.36,37.39,19.84,73.25,58.06,77.21,13.4-15.23,15.57-36.5,5.36-54.31l-13.06-22.79ZM265.4,117.2c-20.89-4.34-36.54-20.61-40.58-41.57-3.61-18.74,4.09-38.38,19.87-50.15-1.87,17.01,3.4,28.64,12.24,42.37,10.46,16.08,17.84,31.59,8.47,49.35Z"/>
  <path class="st0" d="M287.58,1.55c-13.49,10.85-18.86,28.54-12.58,44.66,5.51,14.17,17.55,25.25,20.88,42.12,2.17,11.02.36,22.46-5.71,32.12-3.04,4.84-7.06,7.77-10.75,11.79,9.05-.99,17.27-2.89,25.28-6.64,22.33-10.71,37.28-32.11,38.12-57.03,1.1-33.08-22.78-61.54-55.23-67.02ZM307.64,108.42c3.84-21.66-4.03-35.17-14.75-51.96-9.03-13.15-12.61-27.58-1.76-40.31,15.29,4.66,27.56,15.03,33.96,29.58,9.65,21.97,2.72,48.45-17.45,62.69Z"/>
</svg>