<?xml version="1.0" encoding="UTF-8"?>
<svg id="Layer_1" xmlns="http://www.w3.org/2000/svg" version="1.1" viewBox="0 0 132.24 132.25">
  <!-- Generator: Adobe Illustrator 30.5.0, SVG Export Plug-In . SVG Version: 2.1.4 Build 102)  -->
  <defs>
    <style>
      .st0 {
        fill: #101d47;
      }

      .st1 {
        fill: #37363b;
      }
    </style>
  </defs>
  <g>
    <circle class="st1" cx="67.24" cy="65.53" r="5.81"/>
    <circle class="st1" cx="73.77" cy="75.39" r="4.75"/>
    <circle class="st1" cx="60.51" cy="54.69" r="4.7"/>
    <circle class="st1" cx="76.89" cy="86.76" r="4.56"/>
    <circle class="st1" cx="55.48" cy="44.19" r="4.53"/>
    <circle class="st1" cx="52.22" cy="33.91" r="3.84"/>
    <circle class="st1" cx="78.57" cy="96.92" r="3.84"/>
    <circle class="st1" cx="77.14" cy="105.66" r="3.34"/>
    <circle class="st1" cx="53.47" cy="24.8" r="3.33"/>
    <circle class="st1" cx="57.26" cy="17.66" r="2.8"/>
    <circle class="st1" cx="75.7" cy="112.87" r="2.68"/>
    <circle class="st1" cx="73.27" cy="118.14" r="2.47"/>
    <circle class="st1" cx="61.03" cy="12.2" r="2.41"/>
    <circle class="st1" cx="70.11" cy="122.91" r="1.75"/>
    <circle class="st1" cx="64.68" cy="8.18" r="1.76"/>
    <circle class="st1" cx="67.33" cy="126.61" r="1.41"/>
    <circle class="st1" cx="68.1" cy="5.17" r="1.26"/>
    <circle class="st1" cx="64.65" cy="129.41" r="1.05"/>
    <path class="st0" d="M117.99,33.11c-9.51-13.69-22.8-23.57-39.33-27.07-11.61,9.43-15.36,25.28-9.74,39.32l6.18,11.56c4.78,7.42,9.41,14.59,12.49,22.91,5.65,15.32,3.55,31.25-5.16,45.34,27.24-7.52,45.63-31.66,45.66-59.01.01-11.96-3.76-23.2-10.1-33.05ZM97.03,108.42c3.84-21.66-4.03-35.17-14.75-51.96-9.03-13.15-12.61-27.58-1.76-40.31,15.29,4.66,27.56,15.03,33.96,29.58,9.65,21.97,2.72,48.45-17.45,62.69Z"/>
    <path class="st0" d="M60.95,79.14c-2-3.89-4.18-7.17-6.36-10.84-9.35-15.71-18.68-31.61-10.02-49.23,2.36-4.82,5.66-8.26,9.29-12.68-18.49,3.74-33.04,15.31-42.39,31.09-4.9,9.59-7.73,20.04-7.19,30.94,1.47,29.5,23.24,53.57,52.56,58.1,12.26-13.55,12.31-31.42,4.13-47.37ZM54.88,116.9c-20.89-4.34-36.54-20.61-40.58-41.57-3.61-18.74,4.09-38.38,19.87-50.15-1.87,17.01,3.4,28.64,12.24,42.37,10.46,16.08,17.84,31.59,8.47,49.35Z"/>
  </g>
  <path class="st0" d="M51.57,54.08c-9.04-15.77-8.35-31.79,5.56-43.94,4.7-4.1,9.87-6.81,15.03-10.13-10.24.39-19.81,1.56-29.34,5.11C21.45,13.09,5.61,31.55,1.2,53.96c-7.36,37.39,19.84,73.25,58.06,77.21,13.4-15.23,15.57-36.5,5.36-54.31l-13.06-22.79ZM54.8,117.2c-20.89-4.34-36.54-20.61-40.58-41.57-3.61-18.74,4.09-38.38,19.87-50.15-1.87,17.01,3.4,28.64,12.24,42.37,10.46,16.08,17.84,31.59,8.47,49.35Z"/>
  <path class="st0" d="M76.97,1.55c-13.49,10.85-18.86,28.54-12.58,44.66,5.51,14.17,17.55,25.25,20.88,42.12,2.17,11.02.36,22.46-5.71,32.12-3.04,4.84-7.06,7.77-10.75,11.79,9.05-.99,17.27-2.89,25.28-6.64,22.33-10.71,37.28-32.11,38.12-57.03,1.1-33.08-22.78-61.54-55.23-67.02ZM97.03,108.42c3.84-21.66-4.03-35.17-14.75-51.96-9.03-13.15-12.61-27.58-1.76-40.31,15.29,4.66,27.56,15.03,33.96,29.58,9.65,21.97,2.72,48.45-17.45,62.69Z"/>
</svg>